<svg width="1098" height="257" viewBox="0 0 1098 257" fill="none" xmlns="http://www.w3.org/2000/svg">
<g clip-path="url(#clip0_12_74)">
<rect width="1098" height="257" fill="#FFFCE8"/>
<g filter="url(#filter0_d_12_74)">
<path d="M58.8 156.8V181.8C58.8 188.733 56.9333 194 53.2 197.6C49.6 201.2 44.8 203 38.8 203H38.6C32.0667 203 26.8667 201.2 23 197.6C19.2667 194 17.4 188.733 17.4 181.8V153.6C17.4 139.467 19.5333 128.733 23.8 121.4C28.0667 114.067 33.4667 108.8 40 105.6L39 101.8H35.6C29.4667 101.8 24.6 99.8667 21 96C17.5333 92 15.7333 86.6 15.6 79.8C15.4667 73.1333 17.2 67.7333 20.8 63.6C24.5333 59.4667 29.4667 57.4 35.6 57.4H88.2C101.667 57.4 112.6 61.4667 121 69.6C129.533 77.6 133.8 90.2667 133.8 107.6C133.8 120.133 131.6 130 127.2 137.2C122.8 144.4 117 149.467 109.8 152.4C102.6 155.333 94.8 156.8 86.4 156.8H58.8ZM56.2 118.2C56.2 121.133 56.7333 123.067 57.8 124C59 124.933 61.0667 125.4 64 125.4H82.6C88.2 125.4 92.2667 124.133 94.8 121.6C97.3333 118.933 98.6 115.2 98.6 110.4C98.6 105.6 97.3333 101.933 94.8 99.4C92.2667 96.8667 88.2 95.6 82.6 95.6H64C61.0667 95.6 59 96 57.8 96.8C56.7333 97.6 56.2 99.5333 56.2 102.6V118.2Z" fill="#FF7E33"/>
<path d="M200 244.6C185.733 244.6 173.667 241.467 163.8 235.2C153.933 228.933 146.467 220.267 141.4 209.2C136.333 198.133 133.8 185.4 133.8 171C133.8 156.733 136.333 144.067 141.4 133C146.467 121.8 153.933 113.067 163.8 106.8C173.667 100.4 185.733 97.2 200 97.2C214.267 97.2 226.267 100.4 236 106.8C245.867 113.067 253.333 121.8 258.4 133C263.467 144.067 266 156.733 266 171C266 185.4 263.467 198.133 258.4 209.2C253.333 220.267 245.867 228.933 236 235.2C226.267 241.467 214.267 244.6 200 244.6ZM159 167.8C159 171.933 160 175.867 162 179.6C164 183.2 167.933 186.133 173.8 188.4C179.667 190.533 188.4 191.6 200 191.6C211.6 191.6 220.267 190.533 226 188.4C231.867 186.133 235.8 183.2 237.8 179.6C239.8 175.867 240.8 171.933 240.8 167.8C240.8 163.533 239.8 159.733 237.8 156.4C235.8 152.933 231.867 150.2 226 148.2C220.267 146.067 211.6 145 200 145C188.4 145 179.667 146.067 173.8 148.2C167.933 150.2 164 152.933 162 156.4C160 159.733 159 163.533 159 167.8Z" fill="#FF7E33"/>
<path d="M779.4 76.8C779.4 70.6667 781.267 65.9333 785 62.6C788.867 59.1333 793.8 57.4 799.8 57.4C806.067 57.4 811.067 59.1333 814.8 62.6C818.533 65.9333 820.4 70.6667 820.4 76.8V162C820.4 164.533 821.067 166.333 822.4 167.4C823.733 168.333 825.933 167.933 829 166.2C835.667 162.333 841.6 159.267 846.8 157C852 154.6 857.733 153.4 864 153.4C872.667 153.4 879.2 155.667 883.6 160.2C888 164.733 890.2 170.667 890.2 178C890.2 185.867 887.8 191.933 883 196.2C878.333 200.467 870.8 202.6 860.4 202.6H819.2C810.4 202.6 803.067 201.6 797.2 199.6C791.333 197.467 786.867 193.667 783.8 188.2C780.867 182.733 779.4 174.8 779.4 164.4V76.8Z" fill="#FF7E33"/>
<path d="M918.2 244.4C912.067 244.4 907.067 242.533 903.2 238.8C899.333 235.067 897.4 230.333 897.4 224.6V118.8C897.4 112.933 899.267 108 903 104C906.867 100 911.933 98 918.2 98C924.867 98 930.067 100 933.8 104C937.667 107.867 939.6 112.667 939.6 118.4V224.6C939.6 230.333 937.533 235.067 933.4 238.8C929.4 242.533 924.333 244.4 918.2 244.4Z" fill="#FF7E33"/>
<path d="M706 244.6C691.733 244.6 679.667 241.467 669.8 235.2C659.933 228.933 652.467 220.267 647.4 209.2C642.333 198.133 639.8 185.4 639.8 171C639.8 156.733 642.333 144.067 647.4 133C652.467 121.8 659.933 113.067 669.8 106.8C679.667 100.4 691.733 97.2 706 97.2C720.267 97.2 732.267 100.4 742 106.8C751.867 113.067 759.333 121.8 764.4 133C769.467 144.067 772 156.733 772 171C772 185.4 769.467 198.133 764.4 209.2C759.333 220.267 751.867 228.933 742 235.2C732.267 241.467 720.267 244.6 706 244.6ZM665 167.8C665 171.933 666 175.867 668 179.6C670 183.2 673.933 186.133 679.8 188.4C685.667 190.533 694.4 191.6 706 191.6C717.6 191.6 726.267 190.533 732 188.4C737.867 186.133 741.8 183.2 743.8 179.6C745.8 175.867 746.8 171.933 746.8 167.8C746.8 163.533 745.8 159.733 743.8 156.4C741.8 152.933 737.867 150.2 732 148.2C726.267 146.067 717.6 145 706 145C694.4 145 685.667 146.067 679.8 148.2C673.933 150.2 670 152.933 668 156.4C666 159.733 665 163.533 665 167.8Z" fill="#FF7E33"/>
<path d="M1014 203.6C999.733 203.6 987.667 200.467 977.8 194.2C967.933 187.933 960.467 179.267 955.4 168.2C950.333 157.133 947.8 144.4 947.8 130C947.8 115.733 950.333 103.067 955.4 92C960.467 80.8 967.933 72.0667 977.8 65.8C987.667 59.4 999.733 56.2 1014 56.2C1028.27 56.2 1040.27 59.4 1050 65.8C1059.87 72.0667 1067.33 80.8 1072.4 92C1077.47 103.067 1080 115.733 1080 130C1080 144.4 1077.47 157.133 1072.4 168.2C1067.33 179.267 1059.87 187.933 1050 194.2C1040.27 200.467 1028.27 203.6 1014 203.6ZM973 126.8C973 130.933 974 134.867 976 138.6C978 142.2 981.933 145.133 987.8 147.4C993.667 149.533 1002.4 150.6 1014 150.6C1025.6 150.6 1034.27 149.533 1040 147.4C1045.87 145.133 1049.8 142.2 1051.8 138.6C1053.8 134.867 1054.8 130.933 1054.8 126.8C1054.8 122.533 1053.8 118.733 1051.8 115.4C1049.8 111.933 1045.87 109.2 1040 107.2C1034.27 105.067 1025.6 104 1014 104C1002.4 104 993.667 105.067 987.8 107.2C981.933 109.2 978 111.933 976 115.4C974 118.733 973 122.533 973 126.8Z" fill="#FF7E33"/>
<path d="M370.8 203C364.133 203 358.867 201 355 197C351.133 192.867 349.067 187.533 348.8 181C348.267 169.667 345.4 161.667 340.2 157C335.133 152.2 328.333 149.8 319.8 149.8H315.8V181.8C315.8 188.733 313.933 194 310.2 197.6C306.467 201.2 301.533 203 295.4 203C288.867 203 283.733 201.2 280 197.6C276.267 194 274.4 188.733 274.4 181.8V153.6C274.4 139.467 276.467 128.733 280.6 121.4C284.867 114.067 290.267 108.8 296.8 105.6L295.8 101.8H292.6C286.467 101.8 281.6 99.8667 278 96C274.533 92 272.667 86.6 272.4 79.8C272.267 73.1333 274.067 67.7333 277.8 63.6C281.533 59.4667 286.467 57.4 292.6 57.4H343.6C357.867 57.4 369.4 60.8667 378.2 67.8C387 74.7333 391.4 85.8 391.4 101C391.4 108.867 390.067 115.467 387.4 120.8C384.733 126 381.333 130 377.2 132.8C373.067 135.6 368.733 137.267 364.2 137.8V140.4C372.467 142.4 379.267 146.8 384.6 153.6C390.067 160.4 392.8 169.533 392.8 181C392.8 188.333 390.8 193.867 386.8 197.6C382.933 201.2 377.6 203 370.8 203ZM314.8 119.2C314.8 122.133 315.333 124.067 316.4 125C317.467 125.933 319.467 126.4 322.4 126.4H341.2C346.8 126.4 350.867 125.133 353.4 122.6C355.933 120.067 357.2 116.533 357.2 112C357.2 107.333 355.933 103.733 353.4 101.2C350.867 98.6667 346.8 97.4 341.2 97.4H322.4C319.467 97.4 317.467 97.8 316.4 98.6C315.333 99.4 314.8 101.333 314.8 104.4V119.2Z" fill="#FF7E33"/>
<path d="M557.6 203C551.067 203 545.867 201.2 542 197.6C538.267 194 536.4 188.733 536.4 181.8V153.6C536.4 139.467 538.533 128.733 542.8 121.4C547.067 114.067 552.467 108.8 559 105.6L558 101.8H554.6C548.467 101.8 543.6 99.8667 540 96C536.533 92 534.733 86.6 534.6 79.8C534.467 73.1333 536.2 67.8 539.8 63.8C543.533 59.8 548.467 57.8 554.6 57.8H624.6C638.867 57.8 646 64.4667 646 77.8C646 83.8 644.267 88.6 640.8 92.2C637.333 95.8 631.933 97.6 624.6 97.6H585.6C580.667 97.6 578.2 100.467 578.2 106.2V120.6C584.467 118.867 591 116.867 597.8 114.6C604.6 112.333 611.133 111.2 617.4 111.2C624.067 111.2 629.2 112.867 632.8 116.2C636.533 119.4 638.4 124.333 638.4 131C638.4 137.533 636.533 142.467 632.8 145.8C629.2 149 624.067 150.667 617.4 150.8C611.133 150.933 604.533 149.933 597.6 147.8C590.8 145.533 584.267 143.533 578 141.8L577.8 181.8C577.8 188.733 575.933 194 572.2 197.6C568.6 201.2 563.733 203 557.6 203Z" fill="#FF7E33"/>
<path d="M422.4 142.8C415.733 142.8 410.267 140.867 406 137C401.867 133.133 399.8 127.8 399.8 121C399.8 114.333 401.667 109 405.4 105C409.267 100.867 414.933 98.8 422.4 98.8H508.6C516.067 98.8 521.667 100.867 525.4 105C529.267 109 531.2 114.333 531.2 121C531.2 127.8 529.067 133.133 524.8 137C520.667 140.867 515.267 142.8 508.6 142.8C504.067 142.8 500.4 142.333 497.6 141.4C494.933 140.333 492.733 139.133 491 137.8C489.267 136.333 487.6 135.133 486 134.2C484.4 133.133 482.4 132.6 480 132.6L478.2 136.2C478.733 137.4 479.667 139.133 481 141.4C482.333 143.533 483.6 146.667 484.8 150.8C486 154.8 486.6 160.267 486.6 167.2V225C486.6 230.467 484.533 235 480.4 238.6C476.4 242.2 471.467 244 465.6 244C459.6 244 454.533 242.2 450.4 238.6C446.4 235 444.4 230.467 444.4 225V167.2C444.4 160.267 445 154.8 446.2 150.8C447.4 146.667 448.667 143.533 450 141.4C451.467 139.133 452.467 137.4 453 136.2L451 132.6C448.6 132.6 446.6 133.133 445 134.2C443.4 135.133 441.733 136.333 440 137.8C438.267 139.133 436.067 140.333 433.4 141.4C430.733 142.333 427.067 142.8 422.4 142.8Z" fill="#FF7E33"/>
</g>
<path d="M30.0508 46.9805C29.6211 46.9805 29.3086 46.9023 29.1133 46.7461C28.918 46.5898 28.8203 46.3229 28.8203 45.9453V40.7305C28.4688 40.4831 27.8177 40.2682 26.8672 40.0859C25.9297 39.8906 25.0247 39.7669 24.1523 39.7148C23.8919 40.1576 23.6706 40.8346 23.4883 41.7461L23.3711 42.3516C23.1628 43.4193 22.974 44.2852 22.8047 44.9492C22.6354 45.6133 22.4271 46.1471 22.1797 46.5508C21.151 46.5508 20.5651 46.2839 20.4219 45.75C20.6693 45.3984 21.0013 44.1484 21.418 42C21.7695 40.1641 22.2057 37.7227 22.7266 34.6758C23.3255 31.1341 23.8724 28.1589 24.3672 25.75C24.862 23.3281 25.3828 21.2904 25.9297 19.6367C26.5286 17.7878 27.1146 16.8633 27.6875 16.8633C28.2474 16.8633 28.6771 16.9805 28.9766 17.2148C28.9766 18.2044 29.237 20.776 29.7578 24.9297C30.2786 29.0833 30.5391 31.8177 30.5391 33.1328C30.5391 34.3828 30.6823 36.401 30.9688 39.1875C31.2422 42.0521 31.3789 44.2005 31.3789 45.6328C31.3789 46.5312 30.9362 46.9805 30.0508 46.9805ZM27.9609 38.3867C28.1953 38.3867 28.4688 38.3477 28.7812 38.2695C28.7422 37.6966 28.6055 36.2448 28.3711 33.9141C27.7591 27.7422 27.4531 24.0573 27.4531 22.8594C27.4531 22.6641 27.4596 22.5469 27.4727 22.5078C27.2122 22.7682 26.8477 23.9727 26.3789 26.1211C25.9102 28.2695 25.474 30.5807 25.0703 33.0547C24.6667 35.5156 24.4453 37.1432 24.4062 37.9375C25.5391 38.237 26.724 38.3867 27.9609 38.3867ZM46.0664 39.6367L46.6914 42.4102L46.7305 42.6055C46.7305 40.7174 46.7565 38.3932 46.8086 35.6328C46.8607 32.8724 46.8867 30.5482 46.8867 28.6602V16.8242C47.043 16.1602 47.4792 15.8281 48.1953 15.8281C48.9115 15.8281 49.2695 16.349 49.2695 17.3906V17.625C49.1133 17.9505 49.0352 18.3411 49.0352 18.7969C49.0352 20.4115 48.9961 22.8724 48.918 26.1797C48.8268 29.2656 48.7812 31.7331 48.7812 33.582V45.8086C48.7812 46.2253 48.6641 46.6224 48.4297 47C48.2083 47.3906 47.9414 47.5859 47.6289 47.5859C47.069 47.5859 45.9753 44.8385 44.3477 39.3438C42.6419 33.5625 41.0339 27.6641 39.5234 21.6484V34.7734C39.5234 36.0495 39.6211 37.9505 39.8164 40.4766C39.9987 43.0938 40.0898 44.9948 40.0898 46.1797C40.0898 46.4141 39.9401 46.6159 39.6406 46.7852C39.3542 46.9544 39.0352 47.0391 38.6836 47.0391C38.0977 47.0391 37.8047 46.8307 37.8047 46.4141C37.8047 46.3099 37.8372 45.9128 37.9023 45.2227C37.9674 44.5326 38 43.9727 38 43.543C38 42.0586 37.9154 39.819 37.7461 36.8242C37.5768 33.8294 37.4922 31.9349 37.4922 31.1406V26.043C37.4922 25.1055 37.5378 23.8815 37.6289 22.3711C37.7201 20.8607 37.7656 19.6367 37.7656 18.6992V18.4453C37.7656 17.1172 38.0586 16.4531 38.6445 16.4531C39.0091 16.4531 39.4583 17.0326 39.9922 18.1914C40.8776 20.1185 41.9909 23.556 43.332 28.5039C44.0872 31.3294 44.9987 35.0404 46.0664 39.6367ZM61.0078 44.832C62.5312 44.832 63.293 45.1836 63.293 45.8867V46.0234C63.1237 46.362 62.8242 46.6354 62.3945 46.8438C61.9779 47.0391 61.5742 47.1562 61.1836 47.1953C60.7409 47.2214 60.3047 47.2344 59.875 47.2344H58.625C58.2995 47.2344 58.0456 47.2214 57.8633 47.1953C57.694 47.1823 57.5052 47.1367 57.2969 47.0586C56.8542 46.9023 56.6328 46.5247 56.6328 45.9258V22.6836C56.6328 22.2669 56.5417 21.5898 56.3594 20.6523C56.1771 19.7148 56.0859 19.0312 56.0859 18.6016V18.4648C56.5286 17.7487 56.8607 17.2799 57.082 17.0586C57.4076 17.0586 57.9023 17 58.5664 16.8828C59.2305 16.7656 59.7253 16.707 60.0508 16.707C60.4805 16.707 60.8906 16.8372 61.2812 17.0977C61.6849 17.3451 61.8867 17.651 61.8867 18.0156C61.8867 18.8099 61.2812 19.207 60.0703 19.207C59.862 19.207 59.6732 19.2005 59.5039 19.1875C59.3346 19.1745 59.1393 19.168 58.918 19.168C58.6966 19.168 58.5534 19.1745 58.4883 19.1875C58.4883 19.8255 58.5404 20.9258 58.6445 22.4883C58.7487 24.0508 58.8008 25.151 58.8008 25.7891C58.8008 26.2057 58.7682 26.9805 58.7031 28.1133C58.638 29.2591 58.6055 30.0078 58.6055 30.3594C58.5924 30.3594 58.7878 30.3138 59.1914 30.2227C59.6992 30.0794 60.1289 30.0078 60.4805 30.0078C60.793 30.0078 61.0664 30.1185 61.3008 30.3398C61.5352 30.5612 61.6523 30.8216 61.6523 31.1211C61.6523 31.4596 61.5482 31.7526 61.3398 32C61.1445 32.2344 60.8971 32.3516 60.5977 32.3516C60.4414 32.3516 60.2917 32.3451 60.1484 32.332C59.9922 32.319 59.8099 32.3125 59.6016 32.3125C59.2109 32.3125 58.9375 32.4102 58.7812 32.6055V44.9492L61.0078 44.832ZM72.7461 33.3086C72.8503 35.7826 72.9023 39.2591 72.9023 43.7383V44.7539H75.9492C76.5221 45.1445 76.8086 45.5417 76.8086 45.9453C76.8086 46.2448 76.7109 46.5117 76.5156 46.7461C76.3203 46.9674 76.0794 47.0781 75.793 47.0781C75.6628 47.0781 75.526 47.0521 75.3828 47L75.1875 46.9414C74.9922 46.9935 74.7383 47.0195 74.4258 47.0195L73.7812 46.9805C73.5859 46.9674 73.3711 46.9609 73.1367 46.9609C72.8633 47.2865 72.4857 47.4492 72.0039 47.4492C71.6523 47.4492 71.3398 47.319 71.0664 47.0586C70.793 46.8112 70.6562 46.5182 70.6562 46.1797C70.6562 45.9453 70.7018 45.6458 70.793 45.2812C70.8711 44.9036 70.9102 44.6172 70.9102 44.4219C70.9102 41.5443 70.7799 36.9935 70.5195 30.7695C70.2461 24.7148 70.1094 20.1706 70.1094 17.1367C70.1094 16.9023 70.2005 16.707 70.3828 16.5508C70.5781 16.3945 70.8125 16.3164 71.0859 16.3164C71.4115 16.3164 71.6914 16.4336 71.9258 16.668C72.1732 16.8893 72.2969 17.1562 72.2969 17.4688C72.2969 18.9141 72.3685 21.3164 72.5117 24.6758C72.6419 27.7227 72.707 30.1185 72.707 31.8633L72.7461 32.3516C72.7591 32.4948 72.7656 32.6576 72.7656 32.8398C72.7656 32.9961 72.7591 33.0938 72.7461 33.1328V33.3086ZM88.4102 45.9258V46.1602L87.4141 46.8438L86.3594 46.8828C85.7214 46.9219 85.168 46.9414 84.6992 46.9414C82.3945 46.9414 81.2422 46.5443 81.2422 45.75C81.2422 45.112 81.6458 44.793 82.4531 44.793C82.6354 44.793 82.7917 44.7995 82.9219 44.8125L83.293 44.8516C83.5013 44.8516 83.651 44.7865 83.7422 44.6562C83.8333 44.513 83.8789 44.2656 83.8789 43.9141C83.8789 41.7526 83.7552 38.6667 83.5078 34.6562C83.2604 30.6589 83.1367 27.5794 83.1367 25.418L83.1758 23.3672L83.2148 21.3359C83.2148 20.5417 83.1823 19.7995 83.1172 19.1094C82.7656 19.2266 82.4531 19.2852 82.1797 19.2852C81.5547 19.2852 81.2422 18.9661 81.2422 18.3281C81.2422 18.0156 81.4375 17.7422 81.8281 17.5078C82.2188 17.2604 82.7266 17.0781 83.3516 16.9609C84.4323 16.7656 85.3763 16.668 86.1836 16.668C86.4961 16.668 86.7695 16.7786 87.0039 17C87.2383 17.2083 87.3555 17.4622 87.3555 17.7617C87.3555 18.0482 87.2643 18.3021 87.082 18.5234C86.9128 18.7318 86.6914 18.8359 86.418 18.8359C86.2617 18.8359 86.1315 18.8294 86.0273 18.8164H85.7148C85.4414 18.8164 85.2461 18.875 85.1289 18.9922C85.0117 19.1094 84.9531 19.3242 84.9531 19.6367C84.9531 22.3451 85.1159 26.2448 85.4414 31.3359C85.7669 36.4271 85.9297 40.3268 85.9297 43.0352V44.5781C86.2031 44.5391 86.4766 44.5195 86.75 44.5195C87.8568 44.5195 88.4102 44.9883 88.4102 45.9258ZM97.7266 20.2812C97.5703 20.8021 97.4922 21.3099 97.4922 21.8047C97.4922 22.8333 97.6289 23.8815 97.9023 24.9492C98.1758 26.0039 98.5404 26.9805 98.9961 27.8789L99.2891 28.4648C100.539 30.9258 101.372 32.599 101.789 33.4844C102.245 34.4349 102.609 35.5156 102.883 36.7266C103.156 37.9245 103.293 39.1224 103.293 40.3203C103.293 41.1536 103.176 42 102.941 42.8594C102.72 43.7188 102.401 44.526 101.984 45.2812C101.542 46.0755 100.956 46.707 100.227 47.1758C99.4974 47.6445 98.6966 47.8789 97.8242 47.8789C96.8607 47.8789 96.0404 47.7031 95.3633 47.3516C94.9336 47.1432 94.7188 46.8698 94.7188 46.5312C94.7188 46.2188 94.7969 45.9648 94.9531 45.7695C95.1094 45.5612 95.3307 45.457 95.6172 45.457C95.9297 45.457 96.3268 45.5547 96.8086 45.75C97.2773 45.9583 97.6159 46.0625 97.8242 46.0625C98.319 46.0625 98.7747 45.8411 99.1914 45.3984C99.6211 44.9557 99.9596 44.3828 100.207 43.6797C100.441 43.0286 100.617 42.3841 100.734 41.7461C100.865 41.1081 100.93 40.5482 100.93 40.0664C100.93 38.9336 100.747 37.7357 100.383 36.4727C100.018 35.2096 99.5299 33.9727 98.918 32.7617L98.3516 31.6484C97.7135 30.4115 97.1992 29.3698 96.8086 28.5234C96.418 27.6641 96.0794 26.7591 95.793 25.8086C95.4023 24.5326 95.207 23.2956 95.207 22.0977C95.207 21.1341 95.3698 20.2292 95.6953 19.3828C96.0208 18.5234 96.5221 17.7943 97.1992 17.1953C97.8763 16.5703 98.6966 16.2578 99.6602 16.2578C100.142 16.2578 100.611 16.3945 101.066 16.668C101.522 16.9414 101.841 17.2865 102.023 17.7031L101.34 18.5625C100.676 18.5625 100.155 18.4323 99.7773 18.1719C99.3086 18.224 98.8854 18.4518 98.5078 18.8555C98.1432 19.2591 97.8828 19.7344 97.7266 20.2812ZM114.836 44.832C116.359 44.832 117.121 45.1836 117.121 45.8867V46.0234C116.952 46.362 116.652 46.6354 116.223 46.8438C115.806 47.0391 115.402 47.1562 115.012 47.1953C114.569 47.2214 114.133 47.2344 113.703 47.2344H112.453C112.128 47.2344 111.874 47.2214 111.691 47.1953C111.522 47.1823 111.333 47.1367 111.125 47.0586C110.682 46.9023 110.461 46.5247 110.461 45.9258V22.6836C110.461 22.2669 110.37 21.5898 110.188 20.6523C110.005 19.7148 109.914 19.0312 109.914 18.6016V18.4648C110.357 17.7487 110.689 17.2799 110.91 17.0586C111.236 17.0586 111.73 17 112.395 16.8828C113.059 16.7656 113.553 16.707 113.879 16.707C114.309 16.707 114.719 16.8372 115.109 17.0977C115.513 17.3451 115.715 17.651 115.715 18.0156C115.715 18.8099 115.109 19.207 113.898 19.207C113.69 19.207 113.501 19.2005 113.332 19.1875C113.163 19.1745 112.967 19.168 112.746 19.168C112.525 19.168 112.382 19.1745 112.316 19.1875C112.316 19.8255 112.368 20.9258 112.473 22.4883C112.577 24.0508 112.629 25.151 112.629 25.7891C112.629 26.2057 112.596 26.9805 112.531 28.1133C112.466 29.2591 112.434 30.0078 112.434 30.3594C112.421 30.3594 112.616 30.3138 113.02 30.2227C113.527 30.0794 113.957 30.0078 114.309 30.0078C114.621 30.0078 114.895 30.1185 115.129 30.3398C115.363 30.5612 115.48 30.8216 115.48 31.1211C115.48 31.4596 115.376 31.7526 115.168 32C114.973 32.2344 114.725 32.3516 114.426 32.3516C114.27 32.3516 114.12 32.3451 113.977 32.332C113.82 32.319 113.638 32.3125 113.43 32.3125C113.039 32.3125 112.766 32.4102 112.609 32.6055V44.9492L114.836 44.832ZM148.762 47.8008C148.085 47.8008 147.642 47.5208 147.434 46.9609V46.9219C147.316 46.9609 147.023 47.1107 146.555 47.3711C146.112 47.6185 145.734 47.7943 145.422 47.8984C145.109 48.0026 144.797 48.0547 144.484 48.0547C143.768 48.0547 143.098 47.9375 142.473 47.7031C141.861 47.4688 141.32 47.1432 140.852 46.7266C140.435 46.375 140.044 45.9062 139.68 45.3203C139.315 44.7214 139.003 44.0898 138.742 43.4258C138.521 42.8789 138.326 42.2148 138.156 41.4336C138 40.6393 137.876 39.8776 137.785 39.1484C137.707 38.5365 137.635 37.8138 137.57 36.9805C137.518 36.1341 137.492 35.444 137.492 34.9102C137.479 34.5716 137.473 33.9727 137.473 33.1133V31.7461C137.46 31.3034 137.453 30.776 137.453 30.1641C137.453 28.888 137.499 27.5143 137.59 26.043C137.681 24.6497 137.896 23.2565 138.234 21.8633C138.417 21.1341 138.618 20.4961 138.84 19.9492C139.074 19.3893 139.367 18.8555 139.719 18.3477C140.07 17.8268 140.461 17.3971 140.891 17.0586C141.32 16.707 141.828 16.4271 142.414 16.2188C142.987 16.0234 143.618 15.9258 144.309 15.9258C145.415 15.9258 145.969 16.3034 145.969 17.0586C145.969 17.332 145.865 17.5599 145.656 17.7422C145.448 17.9115 145.201 17.9961 144.914 17.9961C144.823 17.9961 144.634 17.9635 144.348 17.8984C144.061 17.8333 143.866 17.8008 143.762 17.8008C143.267 17.8008 142.818 17.957 142.414 18.2695C142.01 18.569 141.672 19.0117 141.398 19.5977C141.099 20.2487 140.845 20.9062 140.637 21.5703C140.428 22.2344 140.272 22.9831 140.168 23.8164C140.012 24.8841 139.895 25.7565 139.816 26.4336C139.751 27.1107 139.706 27.8594 139.68 28.6797C139.628 29.8906 139.602 31.1536 139.602 32.4688V33.5625C139.589 33.9271 139.582 34.3893 139.582 34.9492C139.582 35.7565 139.589 36.4466 139.602 37.0195C139.628 37.5924 139.68 38.2435 139.758 38.9727C139.836 39.7799 139.94 40.4961 140.07 41.1211C140.214 41.7331 140.402 42.3516 140.637 42.9766C140.871 43.6276 141.158 44.1615 141.496 44.5781C141.835 44.9948 142.251 45.3333 142.746 45.5938C143.241 45.8672 143.794 46.0039 144.406 46.0039C145.591 46.0039 146.574 45.444 147.355 44.3242C147.342 43.4388 147.277 42.5404 147.16 41.6289C147.056 40.7174 146.906 40.0924 146.711 39.7539L146.086 39.832C145.721 39.8841 145.409 39.9102 145.148 39.9102C144.237 39.9102 143.781 39.5326 143.781 38.7773C143.781 38.5299 143.918 38.3151 144.191 38.1328C144.465 37.9375 144.816 37.7943 145.246 37.7031C146.04 37.5339 146.704 37.4492 147.238 37.4492C147.772 37.4492 148.189 37.651 148.488 38.0547C148.788 38.4583 148.938 38.9661 148.938 39.5781C148.938 40.3724 149.074 41.5638 149.348 43.1523C149.608 44.7799 149.738 45.9648 149.738 46.707C149.738 47.0195 149.647 47.2799 149.465 47.4883C149.283 47.6966 149.048 47.8008 148.762 47.8008ZM163.762 46.9805C163.332 46.9805 163.02 46.9023 162.824 46.7461C162.629 46.5898 162.531 46.3229 162.531 45.9453V40.7305C162.18 40.4831 161.529 40.2682 160.578 40.0859C159.641 39.8906 158.736 39.7669 157.863 39.7148C157.603 40.1576 157.382 40.8346 157.199 41.7461L157.082 42.3516C156.874 43.4193 156.685 44.2852 156.516 44.9492C156.346 45.6133 156.138 46.1471 155.891 46.5508C154.862 46.5508 154.276 46.2839 154.133 45.75C154.38 45.3984 154.712 44.1484 155.129 42C155.48 40.1641 155.917 37.7227 156.438 34.6758C157.036 31.1341 157.583 28.1589 158.078 25.75C158.573 23.3281 159.094 21.2904 159.641 19.6367C160.24 17.7878 160.826 16.8633 161.398 16.8633C161.958 16.8633 162.388 16.9805 162.688 17.2148C162.688 18.2044 162.948 20.776 163.469 24.9297C163.99 29.0833 164.25 31.8177 164.25 33.1328C164.25 34.3828 164.393 36.401 164.68 39.1875C164.953 42.0521 165.09 44.2005 165.09 45.6328C165.09 46.5312 164.647 46.9805 163.762 46.9805ZM161.672 38.3867C161.906 38.3867 162.18 38.3477 162.492 38.2695C162.453 37.6966 162.316 36.2448 162.082 33.9141C161.47 27.7422 161.164 24.0573 161.164 22.8594C161.164 22.6641 161.171 22.5469 161.184 22.5078C160.923 22.7682 160.559 23.9727 160.09 26.1211C159.621 28.2695 159.185 30.5807 158.781 33.0547C158.378 35.5156 158.156 37.1432 158.117 37.9375C159.25 38.237 160.435 38.3867 161.672 38.3867ZM180.91 22.3516C181.171 20.6068 181.353 18.9466 181.457 17.3711V17.1367C181.509 16.7982 181.665 16.5247 181.926 16.3164C182.199 16.1081 182.518 16.0039 182.883 16.0039C183.117 16.0039 183.332 16.1146 183.527 16.3359C183.723 16.5443 183.82 16.7721 183.82 17.0195C183.82 20.3789 183.944 25.1576 184.191 31.3555C184.426 37.7227 184.543 42.5013 184.543 45.6914C184.543 46.0951 184.465 46.4792 184.309 46.8438C184.152 47.2083 183.951 47.5013 183.703 47.7227C183.456 47.944 183.208 48.0547 182.961 48.0547C182.701 48.0547 182.486 47.9115 182.316 47.625C182.16 47.3516 182.082 46.9674 182.082 46.4727C182.082 44.194 182.056 41.388 182.004 38.0547C181.952 34.7214 181.926 31.9154 181.926 29.6367V27.6055C181.757 28.6341 181.346 30.431 180.695 32.9961C180.044 35.5742 179.634 37.5469 179.465 38.9141V39.168L179.348 39.9102C179.296 40.3008 179.237 40.6263 179.172 40.8867C179.12 41.1341 179.035 41.4076 178.918 41.707C178.684 42.3451 178.273 42.6641 177.688 42.6641C176.737 42.6641 176.262 41.4206 176.262 38.9336C176.262 37.5534 176.118 36.069 175.832 34.4805C175.559 32.8919 175.109 30.9323 174.484 28.6016C173.859 26.3359 173.469 24.8385 173.312 24.1094C173.26 25.9974 173.234 27.6055 173.234 28.9336C173.234 30.7565 173.293 33.4974 173.41 37.1562C173.514 41.0495 173.566 43.7904 173.566 45.3789C173.566 45.9648 173.365 46.4661 172.961 46.8828C172.31 46.8828 171.854 46.6745 171.594 46.2578C171.333 45.8411 171.203 45.2292 171.203 44.4219C171.203 43.849 171.236 42.7617 171.301 41.1602C171.366 39.5716 171.398 38.4974 171.398 37.9375C171.398 36.2057 171.379 33.6211 171.34 30.1836C171.288 27.1237 171.262 24.5456 171.262 22.4492C171.262 20.7174 171.281 18.9922 171.32 17.2734L172.434 16.6484C172.824 16.6615 173.267 17.2539 173.762 18.4258C174.478 20.1966 175.344 23.5104 176.359 28.3672C176.737 30.1641 177.082 31.9089 177.395 33.6016C177.733 35.4375 177.928 36.4661 177.98 36.6875C178.085 36.1536 178.28 35.2682 178.566 34.0312C178.645 33.6667 178.716 33.3216 178.781 32.9961C178.859 32.6706 178.931 32.3646 178.996 32.0781C179.53 29.6693 179.914 27.8789 180.148 26.707C180.383 25.5352 180.637 24.0833 180.91 22.3516ZM198.938 34.2656C199.68 35.9193 200.051 37.7292 200.051 39.6953C200.051 40.6589 199.738 41.8112 199.113 43.1523C198.723 43.9596 198.28 44.6562 197.785 45.2422C197.29 45.8281 196.672 46.3164 195.93 46.707C195.122 47.1237 194.25 47.332 193.312 47.332H193.156C191.906 47.332 191.281 47 191.281 46.3359C191.281 45.4896 191.314 43.849 191.379 41.4141C191.444 38.9792 191.477 37.3385 191.477 36.4922C191.477 34.4479 191.431 31.7396 191.34 28.3672C191.249 24.9948 191.203 22.2865 191.203 20.2422V20.0078C191.203 19.6172 191.216 19.2852 191.242 19.0117C191.268 18.7383 191.327 18.4323 191.418 18.0938C191.496 17.7422 191.646 17.4688 191.867 17.2734C192.089 17.0781 192.368 16.9805 192.707 16.9805C193.957 16.9805 195.038 17.2604 195.949 17.8203C196.861 18.3672 197.557 19.1354 198.039 20.125C198.521 21.1146 198.762 22.2539 198.762 23.543C198.762 24.3372 198.612 25.1771 198.312 26.0625C198.026 26.9349 197.635 27.7422 197.141 28.4844C196.646 29.2266 196.105 29.806 195.52 30.2227C197.069 31.2643 198.208 32.612 198.938 34.2656ZM195.324 19.7734C194.882 19.4219 194.419 19.2461 193.938 19.2461C193.56 19.2461 193.371 19.6628 193.371 20.4961C193.371 21.7982 193.397 23.3607 193.449 25.1836C193.501 27.0065 193.527 28.4974 193.527 29.6562C193.866 29.5781 194.185 29.3893 194.484 29.0898C194.797 28.7904 195.07 28.3997 195.305 27.918C195.695 27.1497 196.066 26.2383 196.418 25.1836C196.587 24.6628 196.717 24.2982 196.809 24.0898V22.6641C196.809 22.1432 196.672 21.6159 196.398 21.082C196.125 20.5482 195.767 20.112 195.324 19.7734ZM197.453 42.3711C197.805 41.5898 197.98 40.7305 197.98 39.793C197.98 38.569 197.876 37.4492 197.668 36.4336C197.473 35.4049 197.219 34.6237 196.906 34.0898C196.607 33.5951 196.307 33.1719 196.008 32.8203C195.708 32.4688 195.454 32.2344 195.246 32.1172L194.934 31.9805H193.508C193.638 35.4961 193.703 39.9167 193.703 45.2422C194.576 45.112 195.331 44.793 195.969 44.2852C196.62 43.7773 197.115 43.1393 197.453 42.3711ZM212.473 45.9258V46.1602L211.477 46.8438L210.422 46.8828C209.784 46.9219 209.23 46.9414 208.762 46.9414C206.457 46.9414 205.305 46.5443 205.305 45.75C205.305 45.112 205.708 44.793 206.516 44.793C206.698 44.793 206.854 44.7995 206.984 44.8125L207.355 44.8516C207.564 44.8516 207.714 44.7865 207.805 44.6562C207.896 44.513 207.941 44.2656 207.941 43.9141C207.941 41.7526 207.818 38.6667 207.57 34.6562C207.323 30.6589 207.199 27.5794 207.199 25.418L207.238 23.3672L207.277 21.3359C207.277 20.5417 207.245 19.7995 207.18 19.1094C206.828 19.2266 206.516 19.2852 206.242 19.2852C205.617 19.2852 205.305 18.9661 205.305 18.3281C205.305 18.0156 205.5 17.7422 205.891 17.5078C206.281 17.2604 206.789 17.0781 207.414 16.9609C208.495 16.7656 209.439 16.668 210.246 16.668C210.559 16.668 210.832 16.7786 211.066 17C211.301 17.2083 211.418 17.4622 211.418 17.7617C211.418 18.0482 211.327 18.3021 211.145 18.5234C210.975 18.7318 210.754 18.8359 210.48 18.8359C210.324 18.8359 210.194 18.8294 210.09 18.8164H209.777C209.504 18.8164 209.309 18.875 209.191 18.9922C209.074 19.1094 209.016 19.3242 209.016 19.6367C209.016 22.3451 209.178 26.2448 209.504 31.3359C209.829 36.4271 209.992 40.3268 209.992 43.0352V44.5781C210.266 44.5391 210.539 44.5195 210.812 44.5195C211.919 44.5195 212.473 44.9883 212.473 45.9258ZM227.824 39.6367L228.449 42.4102L228.488 42.6055C228.488 40.7174 228.514 38.3932 228.566 35.6328C228.618 32.8724 228.645 30.5482 228.645 28.6602V16.8242C228.801 16.1602 229.237 15.8281 229.953 15.8281C230.669 15.8281 231.027 16.349 231.027 17.3906V17.625C230.871 17.9505 230.793 18.3411 230.793 18.7969C230.793 20.4115 230.754 22.8724 230.676 26.1797C230.585 29.2656 230.539 31.7331 230.539 33.582V45.8086C230.539 46.2253 230.422 46.6224 230.188 47C229.966 47.3906 229.699 47.5859 229.387 47.5859C228.827 47.5859 227.733 44.8385 226.105 39.3438C224.4 33.5625 222.792 27.6641 221.281 21.6484V34.7734C221.281 36.0495 221.379 37.9505 221.574 40.4766C221.757 43.0938 221.848 44.9948 221.848 46.1797C221.848 46.4141 221.698 46.6159 221.398 46.7852C221.112 46.9544 220.793 47.0391 220.441 47.0391C219.855 47.0391 219.562 46.8307 219.562 46.4141C219.562 46.3099 219.595 45.9128 219.66 45.2227C219.725 44.5326 219.758 43.9727 219.758 43.543C219.758 42.0586 219.673 39.819 219.504 36.8242C219.335 33.8294 219.25 31.9349 219.25 31.1406V26.043C219.25 25.1055 219.296 23.8815 219.387 22.3711C219.478 20.8607 219.523 19.6367 219.523 18.6992V18.4453C219.523 17.1172 219.816 16.4531 220.402 16.4531C220.767 16.4531 221.216 17.0326 221.75 18.1914C222.635 20.1185 223.749 23.556 225.09 28.5039C225.845 31.3294 226.757 35.0404 227.824 39.6367ZM244.387 45.9258V46.1602L243.391 46.8438L242.336 46.8828C241.698 46.9219 241.145 46.9414 240.676 46.9414C238.371 46.9414 237.219 46.5443 237.219 45.75C237.219 45.112 237.622 44.793 238.43 44.793C238.612 44.793 238.768 44.7995 238.898 44.8125L239.27 44.8516C239.478 44.8516 239.628 44.7865 239.719 44.6562C239.81 44.513 239.855 44.2656 239.855 43.9141C239.855 41.7526 239.732 38.6667 239.484 34.6562C239.237 30.6589 239.113 27.5794 239.113 25.418L239.152 23.3672L239.191 21.3359C239.191 20.5417 239.159 19.7995 239.094 19.1094C238.742 19.2266 238.43 19.2852 238.156 19.2852C237.531 19.2852 237.219 18.9661 237.219 18.3281C237.219 18.0156 237.414 17.7422 237.805 17.5078C238.195 17.2604 238.703 17.0781 239.328 16.9609C240.409 16.7656 241.353 16.668 242.16 16.668C242.473 16.668 242.746 16.7786 242.98 17C243.215 17.2083 243.332 17.4622 243.332 17.7617C243.332 18.0482 243.241 18.3021 243.059 18.5234C242.889 18.7318 242.668 18.8359 242.395 18.8359C242.238 18.8359 242.108 18.8294 242.004 18.8164H241.691C241.418 18.8164 241.223 18.875 241.105 18.9922C240.988 19.1094 240.93 19.3242 240.93 19.6367C240.93 22.3451 241.092 26.2448 241.418 31.3359C241.743 36.4271 241.906 40.3268 241.906 43.0352V44.5781C242.18 44.5391 242.453 44.5195 242.727 44.5195C243.833 44.5195 244.387 44.9883 244.387 45.9258Z" fill="#BAD381"/>
</g>
<defs>
<filter id="filter0_d_12_74" x="14.2" y="52" width="1081" height="204.8" filterUnits="userSpaceOnUse" color-interpolation-filters="sRGB">
<feFlood flood-opacity="0" result="BackgroundImageFix"/>
<feColorMatrix in="SourceAlpha" type="matrix" values="0 0 0 0 0 0 0 0 0 0 0 0 0 0 0 0 0 0 127 0" result="hardAlpha"/>
<feOffset dx="7" dy="4"/>
<feGaussianBlur stdDeviation="4.1"/>
<feComposite in2="hardAlpha" operator="out"/>
<feColorMatrix type="matrix" values="0 0 0 0 0 0 0 0 0 0 0 0 0 0 0 0 0 0 0.08 0"/>
<feBlend mode="normal" in2="BackgroundImageFix" result="effect1_dropShadow_12_74"/>
<feBlend mode="normal" in="SourceGraphic" in2="effect1_dropShadow_12_74" result="shape"/>
</filter>
<clipPath id="clip0_12_74">
<rect width="1098" height="257" fill="white"/>
</clipPath>
</defs>
</svg>
